<svg id="SvgjsSvg1175" xmlns="http://www.w3.org/2000/svg" viewBox="0 0 53.46 52.65"><defs><style>.cls-1{fill:#ef5e4e;}</style></defs><title>favicon</title><g id="SvgjsG1177"><g id="SvgjsG1178"><path class="cls-1" d="M26.27,0,1.48,14l3,2.07,21.27-12a.68.68,0,0,1,.7,0L48.71,16.82,51.86,15,26.27,0Zm-.12,5.53L23.56,7h.29V23.75l2.41-1.41L29,24V7.12ZM23.43,7.07,21,8.47h.42V25.2L23.43,24ZM21,8.47,4.82,17.55a.72.72,0,0,1-.76,0L0,14.75V31.56l4.53,3.2v4.53L6.6,40.52V31.43H7L4.18,29.76a.72.72,0,0,1,0-1.24l1.9-1.15V17.21H6.5v9.9l2.07-1.27V15.72H9v9.87l2-1.25h0v-10h.42v10a.77.77,0,0,1,.29.1l1.78,1V12.78H14V25.61l2,1.16V11.4h.41V27l1,.54,1.42-.84h-.31V9.91h.41V26.67l2.36-1.39H21V8.47Zm8.42-1.1V24.22l2.06,1.25V8.62h.11Zm2.48,1.42V25.71L33.92,27V10.05h.14L31.85,8.79Zm2.49,1.42v17l1.35.81.71-.41V11.55h.26Zm2.48,1.43V27.38l2-1.17V12.93h.23ZM39.25,13V26l2-1.14.11,0V14.43h.35L39.25,13Zm2.5,1.43v10.3a.88.88,0,0,1,.22.1L43.81,26V15.86h.38l-2.44-1.4Zm11.71,1.28-4.4,2.51a.68.68,0,0,1-.7,0l-4.14-2.36V26.31l2.08,1.34V17.36h.42V27.92l2.1,1.36a.71.71,0,0,1,.22,1,.64.64,0,0,1-.25.24l-1.85,1.09h.29V40.7l1.18-.7V35.72l.37.22v-.07l4.68-2.48V15.74Zm-42,10-.36.22L9,27.25H9l-.42.25h0L6.5,28.76v0L6.08,29h0l-.17.1h0l.16.09.42.25,2.07,1.24L9,31l1.27.75,16.29,9.68.46.29,15.82-9.32,3.47-2,.78-.45h0l-.35-.24h0l-.42-.27h0L44.22,28h0l-.41-.27h0L41.75,26.4l-.19-.11-2.31,1.34-2.17,1.25-9.79,5.65a.71.71,0,0,1-.72,0L15.92,28.39l-2-1.14L13.54,27l-2.07-1.2-.06,0ZM7,31.44v9.25H6.89L9.08,42V32.92H9.5l-.65-.39-.28-.17ZM9.5,32.92v9.27H9.41l2.16,1.28V34.36h.36L9.5,32.93Zm37.31-1.25-.09,0L46.3,32l-1.88,1.11h.31v9.11L47,40.85h-.17V31.67Zm-2.48,1.46-.11.06L42,34.52h.29v9.13l2.22-1.32h-.14ZM12,34.4v9.23h-.16l2.22,1.31V35.85h.38L12,34.4Zm29.85.19L39.44,36h.32v9.11L42,43.77h-.2ZM14.47,35.87v9.24h-.14l2.16,1.28V37.24h.28l-2.3-1.37Zm24.89.18L37.07,37.4h.27v9.16l2.18-1.29h-.16ZM16.9,37.32V46.5h-.22L19,47.86V38.73h.3l-2-1.19-.37-.22Zm20,.17-2.38,1.39h.31V48l2.31-1.37h-.24V37.49ZM19.39,38.8V48h-.21l2.28,1.35V40.17h.25L19.39,38.8Zm15,.15-1,.59-1.34.78h.27v9.17l2.29-1.35h-.23V39ZM21.87,40.27v9.16h-.24L24,50.82V41.66h.26l-1.32-.79ZM32,40.41l-2.39,1.4h.32V51l2.34-1.39H32V40.41Zm-7.59,1.35v9.16h-.24L27,52.65l2.66-1.57h-.24V41.87L27.37,43.1l-.07,0-.06,0a.75.75,0,0,1-.26.05h-.17l0,0h0l0,0h0l-.05,0-2.27-1.35Z" transform="translate(0 0)"/></g></g></svg>