<svg xmlns="http://www.w3.org/2000/svg" version="1.1" xlink="http://www.w3.org/1999/xlink" xmlns:svgjs="http://svgjs.com/svgjs" width="300" height="49.830396457090906"><defs id="SvgjsDefs15239"></defs><g id="SvgjsG15240" transform="scale(0.6651884700665188)" opacity="1"><g id="SvgjsG15241" class="Js1maXa1o" transform="translate(-6.106920952514928, -12.578074939880569) scale(1.0006424631353312)" light-content="false" fill="#ef5e4e"><path d="M54.003 51.488a25.532 25.532 0 0 0 3.052-12.099c0-14.069-11.406-25.477-25.476-25.477-14.072 0-25.476 11.407-25.476 25.477 0 2.342.32 4.607.914 6.759a25.2 25.2 0 0 0 2.138 5.342c.22.402.449.802.69 1.193l19.207 33.269c.04.073.077.147.124.217a2.914 2.914 0 0 0 4.81-.008l.082-.143L53.311 52.69l.692-1.202zm-22.426-1.417c-5.901 0-10.683-4.781-10.683-10.682 0-5.898 4.781-10.682 10.683-10.682 5.9 0 10.68 4.784 10.68 10.682 0 5.901-4.78 10.682-10.68 10.682zM84.91 12.57a8.826 8.826 0 0 0-7.532 13.433l6.654 11.528c.015.024.027.05.043.075a1.011 1.011 0 0 0 1.668-.004l.025-.049 6.67-11.546.24-.417a8.82 8.82 0 0 0 1.054-4.192 8.82 8.82 0 0 0-8.822-8.828zm0 12.528a3.702 3.702 0 1 1 0-7.403 3.7 3.7 0 0 1 3.699 3.702 3.7 3.7 0 0 1-3.699 3.701zm-1.283 13.557c-.326.205-.654.417-1 .614-.676.516-1.432.994-2.1 1.628-1.414 1.177-2.688 2.694-3.867 4.349-1.188 1.66-2.16 3.569-2.955 5.583-.42.997-.729 2.069-1.027 3.112-.119.511-.242 1.027-.365 1.547l-.315 1.765c-.245 1.237-.625 2.515-.945 3.791-.177.64-.321 1.288-.532 1.927l-.791 1.875c-.957 2.551-2.465 4.952-4.112 7.232-.923 1.072-1.78 2.216-2.787 3.215-1.054.945-2.078 1.934-3.167 2.812-1.141.807-2.27 1.627-3.41 2.375l-3.518 1.937c-1.198.521-2.366 1.026-3.497 1.519-1.167.399-2.292.787-3.375 1.159-2.192.64-4.24 1.138-6.078 1.462-1.053.19-2.011.334-2.913.451l7.498-12.979 1.098-.188 2.743-.696c.907-.32 1.838-.65 2.79-.984.903-.432 1.828-.87 2.769-1.314.896-.51 1.746-1.105 2.67-1.668.877-.607 1.634-1.353 2.498-2.037 1.537-1.517 3.086-3.164 4.229-5.105l.94-1.417c.272-.494.485-1.021.733-1.533.47-1.039.994-2.038 1.431-3.117l.644-1.709.8-1.834c.579-1.166 1.143-2.283 1.824-3.339 1.316-2.124 2.795-4.063 4.45-5.696 1.649-1.63 3.347-3.057 5.127-4.101 2.762-1.537 4.51-.636 4.51-.636z"></path></g><g id="SvgjsG15242" class="text" transform="translate(279.3884497077218, 60.06198006002063) scale(1)" light-content="false" fill="#000000"><path d="M-162.88 -26.69L-162.88 0L-154.79 0L-154.79 -26.69L-144.76 -26.69L-144.76 -33.07L-172.23 -33.07L-172.23 -26.69Z M-134.88 0L-126.84 0L-126.84 -11.65C-126.21 -11.41 -125.39 -11.28 -124.38 -11.28C-124.1 -11.28 -123.69 -11.34 -123.13 -11.44C-121.28 -7.71 -119.52 -3.9 -117.85 0L-109.76 0C-112.54 -5.61 -114.65 -10.13 -116.08 -13.58C-113.39 -16.16 -112.05 -19.38 -112.05 -23.25C-112.05 -30.21 -116.39 -33.69 -125.06 -33.69C-126.42 -33.69 -128.34 -33.61 -130.81 -33.43C-133.28 -33.26 -134.64 -33.12 -134.88 -33.02ZM-126.84 -18.23L-126.84 -26.85C-126.84 -27.09 -125.88 -27.22 -123.96 -27.22C-121.67 -27.22 -120.52 -25.89 -120.52 -23.25C-120.52 -19.56 -121.6 -17.71 -123.76 -17.71C-124.94 -17.71 -125.97 -17.88 -126.84 -18.23Z M-91.37 -33.07L-99.26 -33.07L-99.26 0L-91.37 0Z M-78.1 0L-70.05 0L-70.05 -11.75C-70.12 -11.68 -69.72 -11.6 -68.85 -11.49C-67.91 -11.35 -67.15 -11.28 -66.55 -11.28C-64.19 -11.28 -62.03 -11.89 -60.08 -13.11C-56.87 -15.17 -55.27 -18.55 -55.27 -23.25C-55.27 -30.21 -59.61 -33.69 -68.28 -33.69C-69.64 -33.69 -71.55 -33.61 -74.02 -33.43C-76.5 -33.26 -77.85 -33.12 -78.1 -33.02ZM-70.05 -18.23L-70.05 -26.85C-69.46 -27.09 -68.59 -27.22 -67.44 -27.22L-67.23 -27.22C-64.9 -27.18 -63.73 -25.63 -63.73 -22.57C-63.73 -21.17 -64.06 -20.02 -64.72 -19.09C-65.39 -18.17 -66.22 -17.71 -67.23 -17.71C-68.31 -17.71 -69.25 -17.88 -70.05 -18.23Z M-25.91 0L-17.87 0L-17.87 -13.74L-5.85 -13.74L-5.85 -20.11L-17.87 -20.11L-17.87 -26.69L-3.4 -26.69L-3.4 -33.07L-25.91 -33.07Z M15.88 -33.07L7.99 -33.07L7.99 0L15.88 0Z M29.15 0L37.04 0L37.04 -20.43C42.19 -13.6 47.68 -6.79 53.49 0L60.28 0L60.28 -33.07L52.24 -33.07L52.24 -11.91C49.17 -15.99 43.67 -23.04 35.73 -33.07L29.15 -33.07Z M73.5 -0.05C75.66 0.4 78.53 0.63 82.12 0.63C87.97 0.63 92.48 -0.73 95.65 -3.45C99.17 -6.44 100.93 -10.92 100.93 -16.87C100.93 -21.64 99.59 -25.49 96.9 -28.42C93.67 -31.94 89.02 -33.69 82.96 -33.69C81.42 -33.69 79.55 -33.62 77.34 -33.46C75.13 -33.3 73.85 -33.15 73.5 -33.02ZM81.55 -27.06C82.21 -27.16 82.8 -27.22 83.32 -27.22C85.83 -27.22 87.9 -26.47 89.54 -24.97C91.56 -23.06 92.57 -20.29 92.57 -16.66C92.57 -9.42 89.54 -5.75 83.48 -5.64L83.37 -5.64C82.78 -5.64 82.17 -5.71 81.55 -5.85Z M111.9 -33.07L111.9 0L135.09 0L135.09 -6.37L119.94 -6.37L119.94 -13.79L131.96 -13.79L131.96 -20.16L119.94 -20.16L119.94 -26.69L134.41 -26.69L134.41 -33.07Z M146.48 0L154.52 0L154.52 -11.65C155.15 -11.41 155.97 -11.28 156.98 -11.28C157.26 -11.28 157.68 -11.34 158.23 -11.44C160.08 -7.71 161.84 -3.9 163.51 0L171.61 0C168.82 -5.61 166.71 -10.13 165.29 -13.58C167.97 -16.16 169.31 -19.38 169.31 -23.25C169.31 -30.21 164.97 -33.69 156.3 -33.69C154.94 -33.69 153.03 -33.61 150.55 -33.43C148.08 -33.26 146.72 -33.12 146.48 -33.02ZM154.52 -18.23L154.52 -26.85C154.52 -27.09 155.48 -27.22 157.4 -27.22C159.7 -27.22 160.85 -25.89 160.85 -23.25C160.85 -19.56 159.77 -17.71 157.61 -17.71C156.42 -17.71 155.4 -17.88 154.52 -18.23Z"></path></g></g></svg>